<svg width="43" height="43" viewBox="0 0 43 43" fill="none" xmlns="http://www.w3.org/2000/svg">
<path d="M12.4002 22.3958L22.1451 32.1407C22.3194 32.3151 22.4108 32.5205 22.4192 32.757C22.4264 32.9935 22.3308 33.2103 22.1325 33.4074C21.9366 33.5985 21.7258 33.6958 21.5001 33.6994C21.2755 33.7018 21.0641 33.6045 20.8658 33.4074L9.97248 22.5141C9.816 22.3564 9.70612 22.1963 9.64281 22.0339C9.5795 21.8714 9.54785 21.6935 9.54785 21.5C9.54785 21.3065 9.5795 21.1285 9.64281 20.9661C9.70612 20.8036 9.816 20.6442 9.97248 20.4877L20.8658 9.59256C21.033 9.42534 21.2367 9.33575 21.4768 9.32381C21.718 9.31186 21.9372 9.40145 22.1343 9.59256C22.3314 9.78964 22.4299 10.0023 22.4299 10.2304C22.4299 10.4597 22.3314 10.6729 22.1343 10.87L12.3984 20.6041H33.1459C33.4015 20.6041 33.6147 20.6895 33.7855 20.8603C33.9563 21.0312 34.0417 21.2444 34.0417 21.5C34.0417 21.7556 33.9563 21.9688 33.7855 22.1396C33.6147 22.3104 33.4015 22.3958 33.1459 22.3958H12.4002Z" fill="black"/>
</svg>
