<svg width="1440" height="400" viewBox="0 0 1440 400" fill="none" xmlns="http://www.w3.org/2000/svg">
<g clip-path="url(#clip0_11140_45)">
<g opacity="0.25" clip-path="url(#clip1_11140_45)">
<path d="M832.685 39.5665C833.421 35.7924 832.264 32.2804 831.265 28.7159C831.37 27.1434 831.107 25.6233 830.003 24.4177C829.845 21.5871 829.267 18.8089 827.847 16.3453C827.426 11.9946 825.533 8.11566 824.114 4.02706C822.852 0.777142 821.642 -2.47277 820.223 -5.61786C817.278 -12.3274 813.387 -18.3554 807.656 -23.073C807.446 -23.2827 807.235 -23.44 807.025 -23.5972C806.92 -24.3835 806.499 -24.9601 805.868 -25.4319C800.084 -29.6777 793.617 -32.5083 786.729 -34.4477C785.887 -34.9719 785.151 -35.7058 783.994 -35.3389C782.049 -36.5445 779.893 -36.9638 777.685 -37.3832C772.058 -39.6371 766.011 -39.8468 760.122 -40.7903C759.229 -41.1048 758.387 -40.9476 757.546 -40.5282C751.604 -41.9435 745.925 -39.742 740.142 -39.2702C736.671 -39.2178 733.306 -38.6412 730.046 -37.488C729.836 -37.2783 729.625 -37.1211 729.467 -36.859C726.523 -37.0162 723.999 -35.7058 721.37 -34.6574C720.792 -34.3953 720.161 -34.0808 719.582 -33.8187C717.006 -33.6615 714.429 -33.347 712.011 -32.2986C706.174 -31.4075 700.495 -30.0971 694.922 -28.1576C693.239 -27.581 691.556 -26.7947 690.4 -25.327C689.663 -24.8028 688.822 -24.3835 688.296 -23.7545C685.72 -20.7142 683.038 -17.674 680.672 -14.4765C679.2 -12.4846 677.097 -10.8072 676.991 -8.02908C673.784 -3.78323 671.838 0.881977 672.259 6.33345C671.523 8.95435 671.05 11.6277 671.207 14.3534C670.629 15.6114 670.314 16.9219 670.524 18.2848C670.051 19.1759 669.42 20.067 669.84 21.1677C669.209 22.4258 668.946 23.6838 669.157 25.0991C668 28.6111 668.21 32.1755 668.473 35.7399C667.79 38.7802 667.895 41.8204 668.736 44.8083C668.684 45.909 668.263 47.0098 668.736 48.0582C668.841 49.9976 668.999 51.9371 669.104 53.8766C669.262 54.2959 669.209 54.7153 669.315 55.1346C669.42 55.5539 669.525 55.9733 669.63 56.3926C670.366 59.4329 671.05 62.5255 673.574 64.7795C673.942 66.4569 675.414 67.0335 676.623 67.8722C681.408 71.2269 686.246 74.5817 691.083 77.9364C691.556 78.3034 692.03 78.6703 692.503 79.0372C698.234 88.7345 706.91 95.2344 716.427 100.843C716.638 100.948 717.006 100.843 717.321 100.843C720.424 102.73 722.895 105.718 726.786 106.347C728.1 107.29 729.467 108.234 730.782 109.178C733.621 111.222 736.671 112.585 740.247 112.48C743.98 113.581 747.818 113.476 751.604 113.685C753.76 114 755.968 114.157 758.124 113.738C760.07 113.738 762.015 114.21 763.908 113.528C766.327 113.843 768.746 113.843 771.059 112.952C774.372 113.686 777.474 112.742 780.576 111.903C780.997 111.746 781.418 111.589 781.838 111.589C786.571 111.327 790.777 109.649 794.826 107.29C800.137 104.774 804.869 101.525 808.76 97.069C810.127 96.8593 810.6 95.7061 811.337 94.7626C814.544 90.7788 816.595 86.1136 818.961 81.6581C820.486 78.7751 822.799 76.259 823.325 72.9043C822.852 72.6422 822.536 72.4325 822.326 72.1704C822.694 72.4325 823.01 72.747 823.325 72.9043C825.428 68.0294 827.637 63.1545 829.582 58.2273C830.266 56.4975 831.16 54.6628 831.002 52.671C832.79 48.4251 833.473 44.022 832.632 39.4092L832.685 39.5665ZM816.7 -1.26716V-1.372C816.7 -1.372 816.7 -1.31958 816.7 -1.26716C816.7 -1.26716 816.7 -1.26716 816.752 -1.26716C816.752 -1.16233 816.647 -1.05749 816.647 -0.952656C816.647 -0.952656 816.647 -1.00507 816.647 -1.05749C816.647 -1.10991 816.647 -1.16233 816.7 -1.21474C816.7 -1.21474 816.7 -1.21474 816.647 -1.21474L816.7 -1.26716ZM717.637 -11.8032C717.058 -11.908 717.9 -12.3274 717.847 -11.7508C717.794 -11.7508 717.742 -11.7508 717.689 -11.7508V-11.8556L717.637 -11.8032ZM756.442 -24.5932C756.442 -24.5932 756.389 -24.698 756.337 -24.7504C756.337 -24.7504 756.337 -24.8028 756.337 -24.8553C756.442 -24.8028 756.547 -24.8028 756.652 -24.7504C756.547 -24.7504 756.494 -24.6456 756.389 -24.5932H756.442ZM756.337 -24.698C756.337 -24.698 756.389 -24.6456 756.442 -24.5932C756.389 -24.5932 756.284 -24.5407 756.231 -24.4883C756.231 -24.5407 756.231 -24.5932 756.231 -24.6456C756.231 -24.6456 756.337 -24.6456 756.389 -24.698H756.337ZM786.676 70.9648C786.676 70.9648 786.623 70.86 786.571 70.7552C786.729 70.7027 786.834 70.6503 786.991 70.5979C786.886 70.7552 786.834 70.8076 786.729 70.9648H786.676ZM702.125 41.5583C702.125 41.5583 702.178 41.5583 702.23 41.5583C702.23 41.5583 702.23 41.5583 702.178 41.6108C702.178 41.6108 702.178 41.5583 702.178 41.5059L702.125 41.5583ZM734.778 30.0264C734.778 30.0264 734.778 30.0264 734.726 30.0264H734.778ZM762.646 58.1224C762.646 58.1224 762.699 58.1224 762.699 58.1748C762.699 58.1748 762.699 58.1748 762.646 58.1748V58.1224ZM770.323 29.3449C770.323 29.3449 769.85 29.6595 769.587 29.7119C769.85 29.607 770.06 29.4498 770.323 29.3449ZM709.276 -0.0615501C709.276 -0.0615501 709.224 -0.271217 709.119 -0.323639C709.119 -0.376057 709.119 -0.428474 709.066 -0.480892H709.119C709.119 -0.323639 709.224 -0.218803 709.276 -0.0615501ZM773.846 3.29321C773.846 3.29321 773.741 3.18837 773.688 3.08353H773.794C773.794 3.13595 773.794 3.24079 773.794 3.29321H773.846ZM760.596 39.4092C760.596 39.4092 760.543 39.4092 760.49 39.4092C760.333 39.4092 760.28 39.3044 760.175 39.3044C760.333 39.3044 760.438 39.3568 760.596 39.4092ZM799.769 38.0987C799.769 38.0987 800.032 38.0463 800.137 37.9939C800.189 38.0987 800.137 38.2036 800.242 38.3608C800.084 38.256 799.979 38.1512 799.821 38.0987H799.769ZM805.29 26.1999C805.29 26.1999 805.079 26.095 805.027 26.0426C805.079 26.095 805.185 26.1999 805.237 26.2523L805.29 26.1999ZM808.497 18.8089C808.392 19.071 808.287 19.1759 808.129 19.2283C808.287 19.0186 808.392 18.7565 808.497 18.5468C808.497 18.6517 808.497 18.7565 808.497 18.8089ZM761.595 -0.795399C761.227 -0.585728 760.806 -0.480892 760.122 -0.795399C760.122 -1.10991 760.122 -1.47683 760.122 -1.79134C760.49 -1.42442 761.016 -1.10991 761.595 -0.795399ZM694.922 16.3453C695.237 16.7122 695.5 17.0791 695.868 17.3936C695.342 17.3936 695.079 16.9219 694.922 16.3453ZM689.558 18.7565C689.558 18.7565 689.453 18.9662 689.401 19.071C689.453 18.9662 689.506 18.8613 689.558 18.7565ZM688.717 20.0145C688.717 20.0145 688.612 20.067 688.612 20.1194C688.664 20.0145 688.77 19.9621 688.822 19.8573C688.822 19.8573 688.77 19.9621 688.717 20.0145ZM783.258 75.001C783.1 75.0534 782.995 75.1583 782.837 75.2107C783.048 75.1059 783.1 75.0534 783.258 75.001ZM778.684 -7.66216C778.684 -7.66216 778.684 -7.81941 778.684 -7.87183C778.736 -7.87183 778.789 -7.97667 778.894 -7.97667C778.789 -7.87183 778.789 -7.76699 778.684 -7.60974V-7.66216ZM754.128 -12.0128C754.128 -12.0128 754.128 -12.0128 754.181 -12.0128C754.181 -12.0128 754.181 -12.0653 754.181 -12.1177L754.128 -12.0128ZM737.933 93.6618C737.618 93.7667 737.25 93.8191 736.934 93.8715C737.039 93.2425 737.25 92.928 737.933 93.6618ZM704.965 -12.904C704.965 -12.904 704.965 -12.904 704.965 -12.9564V-12.904ZM685.878 -6.35171C685.878 -6.35171 685.825 -6.71863 685.772 -6.87589C685.93 -6.87589 686.088 -6.87589 686.193 -6.87589C686.088 -6.71863 685.93 -6.56138 685.825 -6.35171H685.878ZM694.816 55.2394C694.816 55.2394 694.816 55.2394 694.764 55.2394H694.816ZM747.293 93.7666C747.293 93.7666 747.293 93.7666 747.24 93.7666C747.24 93.7666 747.24 93.7667 747.24 93.7142L747.293 93.7666ZM757.809 101.525C757.809 101.525 758.229 101.42 758.44 101.367C758.229 101.367 758.019 101.472 757.809 101.525ZM811.862 2.24485C811.862 2.24485 811.757 2.08759 811.652 2.03518C811.81 2.03518 811.915 2.03518 812.073 2.03518C812.02 2.14001 811.915 2.19243 811.862 2.29726V2.24485ZM712.011 -28.7866C712.011 -28.7866 712.326 -29.0487 712.536 -29.1011C712.536 -29.0487 712.641 -28.9963 712.694 -28.9439C712.484 -28.8914 712.221 -28.839 712.011 -28.7866ZM690.663 -14.3192C690.663 -14.3192 690.663 -14.2144 690.61 -14.2144H690.505C690.557 -14.2144 690.61 -14.2668 690.715 -14.2668L690.663 -14.3192ZM793.985 84.0169C793.985 84.0169 793.985 84.0169 793.985 84.0693C793.985 84.0693 793.985 84.0693 793.932 84.0693C793.932 84.0693 793.932 84.0693 793.932 84.0169H793.985ZM805.553 -22.444C805.553 -22.444 805.553 -22.5489 805.605 -22.6537C805.605 -22.7585 806.131 -22.8634 806.709 -22.9682C806.341 -22.8634 805.973 -22.6537 805.553 -22.444ZM674.31 15.8735C674.31 15.8735 674.31 16.2404 674.31 16.4501C674.205 16.3977 674.099 16.2929 673.994 16.2404C674.152 16.0832 674.257 15.9784 674.415 15.8735H674.31ZM729.047 103.778C729.047 103.778 729.52 103.674 729.73 103.569C729.73 103.831 729.573 103.988 729.573 104.25C729.362 104.093 729.205 103.936 729.047 103.726V103.778ZM819.592 69.5495C819.592 69.5495 819.855 69.8641 820.012 70.0213C819.907 70.0213 819.855 70.1261 819.75 70.1786C819.75 69.9689 819.644 69.7592 819.592 69.5495Z" fill="white"/>
</g>
<g opacity="0.2" clip-path="url(#clip2_11140_45)">
<path d="M1494.81 277.899C1495.26 275.562 1494.55 273.387 1493.95 271.179C1494.01 270.205 1493.85 269.263 1493.18 268.517C1493.09 266.764 1492.74 265.043 1491.88 263.517C1491.62 260.822 1490.47 258.42 1489.61 255.888C1488.85 253.875 1488.12 251.862 1487.26 249.914C1485.47 245.759 1483.11 242.025 1479.64 239.103C1479.51 238.973 1479.39 238.876 1479.26 238.778C1479.19 238.291 1478.94 237.934 1478.56 237.642C1475.05 235.012 1471.13 233.259 1466.96 232.058C1466.45 231.733 1466 231.279 1465.3 231.506C1464.12 230.76 1462.81 230.5 1461.48 230.24C1458.07 228.844 1454.4 228.714 1450.83 228.13C1450.29 227.935 1449.78 228.032 1449.27 228.292C1445.67 227.416 1442.23 228.779 1438.72 229.071C1436.62 229.104 1434.58 229.461 1432.6 230.175C1432.48 230.305 1432.35 230.402 1432.25 230.565C1430.47 230.467 1428.94 231.279 1427.35 231.928C1427 232.091 1426.61 232.285 1426.26 232.448C1424.7 232.545 1423.14 232.74 1421.67 233.389C1418.14 233.941 1414.69 234.753 1411.32 235.954C1410.3 236.311 1409.28 236.798 1408.58 237.707C1408.13 238.032 1407.62 238.291 1407.3 238.681C1405.74 240.564 1404.11 242.447 1402.68 244.427C1401.79 245.661 1400.51 246.7 1400.45 248.421C1398.51 251.05 1397.33 253.94 1397.58 257.316C1397.14 258.939 1396.85 260.595 1396.94 262.283C1396.59 263.063 1396.4 263.874 1396.53 264.718C1396.24 265.27 1395.86 265.822 1396.12 266.504C1395.73 267.283 1395.57 268.062 1395.7 268.939C1395 271.114 1395.13 273.322 1395.29 275.529C1394.87 277.412 1394.94 279.295 1395.45 281.146C1395.41 281.828 1395.16 282.509 1395.45 283.159C1395.51 284.36 1395.61 285.561 1395.67 286.762C1395.76 287.022 1395.73 287.282 1395.8 287.541C1395.86 287.801 1395.92 288.061 1395.99 288.321C1396.43 290.204 1396.85 292.119 1398.38 293.515C1398.6 294.554 1399.49 294.911 1400.23 295.43C1403.13 297.508 1406.06 299.586 1408.99 301.664C1409.28 301.891 1409.56 302.118 1409.85 302.346C1413.32 308.352 1418.58 312.377 1424.35 315.851C1424.48 315.916 1424.7 315.851 1424.89 315.851C1426.77 317.02 1428.27 318.87 1430.63 319.26C1431.42 319.844 1432.25 320.429 1433.05 321.013C1434.77 322.279 1436.62 323.123 1438.79 323.058C1441.05 323.74 1443.37 323.675 1445.67 323.805C1446.98 324 1448.31 324.097 1449.62 323.838C1450.8 323.838 1451.98 324.13 1453.13 323.708C1454.59 323.903 1456.06 323.903 1457.46 323.351C1459.47 323.805 1461.35 323.221 1463.23 322.701C1463.48 322.604 1463.74 322.507 1463.99 322.507C1466.86 322.344 1469.41 321.305 1471.86 319.844C1475.08 318.286 1477.95 316.273 1480.31 313.514C1481.14 313.384 1481.42 312.67 1481.87 312.085C1483.81 309.618 1485.06 306.728 1486.49 303.969C1487.42 302.183 1488.82 300.625 1489.14 298.547C1488.85 298.385 1488.66 298.255 1488.53 298.093C1488.75 298.255 1488.95 298.45 1489.14 298.547C1490.41 295.528 1491.75 292.509 1492.93 289.457C1493.34 288.386 1493.88 287.249 1493.79 286.016C1494.87 283.386 1495.29 280.659 1494.78 277.802L1494.81 277.899ZM1485.12 252.609V252.544C1485.12 252.544 1485.12 252.576 1485.12 252.609C1485.12 252.609 1485.12 252.609 1485.15 252.609C1485.15 252.674 1485.09 252.739 1485.09 252.803C1485.09 252.803 1485.09 252.771 1485.09 252.739C1485.09 252.706 1485.09 252.674 1485.12 252.641C1485.12 252.641 1485.12 252.641 1485.09 252.641L1485.12 252.609ZM1425.08 246.083C1424.73 246.018 1425.24 245.759 1425.21 246.116C1425.18 246.116 1425.15 246.116 1425.11 246.116V246.051L1425.08 246.083ZM1448.6 238.162C1448.6 238.162 1448.57 238.097 1448.54 238.064C1448.54 238.064 1448.54 238.032 1448.54 237.999C1448.6 238.032 1448.66 238.032 1448.73 238.064C1448.66 238.064 1448.63 238.129 1448.57 238.162H1448.6ZM1448.54 238.097C1448.54 238.097 1448.57 238.129 1448.6 238.162C1448.57 238.162 1448.51 238.194 1448.47 238.227C1448.47 238.194 1448.47 238.162 1448.47 238.129C1448.47 238.129 1448.54 238.129 1448.57 238.097H1448.54ZM1466.92 297.346C1466.92 297.346 1466.89 297.281 1466.86 297.216C1466.96 297.184 1467.02 297.151 1467.12 297.119C1467.05 297.216 1467.02 297.249 1466.96 297.346H1466.92ZM1415.68 279.133C1415.68 279.133 1415.71 279.133 1415.75 279.133C1415.75 279.133 1415.75 279.133 1415.71 279.165C1415.71 279.165 1415.71 279.133 1415.71 279.1L1415.68 279.133ZM1435.47 271.991C1435.47 271.991 1435.47 271.991 1435.44 271.991H1435.47ZM1452.36 289.392C1452.36 289.392 1452.39 289.392 1452.39 289.424C1452.39 289.424 1452.39 289.424 1452.36 289.424V289.392ZM1457.01 271.568C1457.01 271.568 1456.73 271.763 1456.57 271.796C1456.73 271.731 1456.85 271.633 1457.01 271.568ZM1420.02 253.355C1420.02 253.355 1419.98 253.226 1419.92 253.193C1419.92 253.161 1419.92 253.128 1419.89 253.096H1419.92C1419.92 253.193 1419.98 253.258 1420.02 253.355ZM1459.15 255.433C1459.15 255.433 1459.09 255.368 1459.05 255.303H1459.12C1459.12 255.336 1459.12 255.401 1459.12 255.433H1459.15ZM1451.12 277.802C1451.12 277.802 1451.09 277.802 1451.05 277.802C1450.96 277.802 1450.93 277.737 1450.86 277.737C1450.96 277.737 1451.02 277.769 1451.12 277.802ZM1474.86 276.99C1474.86 276.99 1475.02 276.958 1475.08 276.925C1475.11 276.99 1475.08 277.055 1475.15 277.152C1475.05 277.088 1474.99 277.023 1474.89 276.99H1474.86ZM1478.21 269.621C1478.21 269.621 1478.08 269.556 1478.05 269.523C1478.08 269.556 1478.14 269.621 1478.17 269.653L1478.21 269.621ZM1480.15 265.043C1480.09 265.205 1480.02 265.27 1479.93 265.303C1480.02 265.173 1480.09 265.01 1480.15 264.881C1480.15 264.946 1480.15 265.01 1480.15 265.043ZM1451.72 252.901C1451.5 253.031 1451.25 253.096 1450.83 252.901C1450.83 252.706 1450.83 252.479 1450.83 252.284C1451.05 252.511 1451.37 252.706 1451.72 252.901ZM1411.32 263.517C1411.51 263.744 1411.67 263.972 1411.89 264.166C1411.57 264.166 1411.41 263.874 1411.32 263.517ZM1408.07 265.01C1408.07 265.01 1408 265.14 1407.97 265.205C1408 265.14 1408.03 265.075 1408.07 265.01ZM1407.56 265.79C1407.56 265.79 1407.49 265.822 1407.49 265.855C1407.52 265.79 1407.59 265.757 1407.62 265.692C1407.62 265.692 1407.59 265.757 1407.56 265.79ZM1464.85 299.846C1464.76 299.878 1464.69 299.943 1464.6 299.976C1464.73 299.911 1464.76 299.878 1464.85 299.846ZM1462.08 248.648C1462.08 248.648 1462.08 248.551 1462.08 248.518C1462.11 248.518 1462.14 248.453 1462.21 248.453C1462.14 248.518 1462.14 248.583 1462.08 248.68V248.648ZM1447.2 245.953C1447.2 245.953 1447.2 245.953 1447.23 245.953C1447.23 245.953 1447.23 245.921 1447.23 245.888L1447.2 245.953ZM1437.38 311.403C1437.19 311.468 1436.97 311.501 1436.78 311.533C1436.84 311.144 1436.97 310.949 1437.38 311.403ZM1417.4 245.401C1417.4 245.401 1417.4 245.401 1417.4 245.369V245.401ZM1405.84 249.46C1405.84 249.46 1405.8 249.232 1405.77 249.135C1405.87 249.135 1405.96 249.135 1406.03 249.135C1405.96 249.232 1405.87 249.33 1405.8 249.46H1405.84ZM1411.25 287.606C1411.25 287.606 1411.25 287.606 1411.22 287.606H1411.25ZM1443.06 311.468C1443.06 311.468 1443.06 311.468 1443.02 311.468C1443.02 311.468 1443.02 311.468 1443.02 311.436L1443.06 311.468ZM1449.43 316.273C1449.43 316.273 1449.68 316.208 1449.81 316.176C1449.68 316.176 1449.56 316.241 1449.43 316.273ZM1482.19 254.784C1482.19 254.784 1482.13 254.686 1482.06 254.654C1482.16 254.654 1482.22 254.654 1482.32 254.654C1482.29 254.719 1482.22 254.751 1482.19 254.816V254.784ZM1421.67 235.564C1421.67 235.564 1421.86 235.402 1421.99 235.37C1421.99 235.402 1422.06 235.435 1422.09 235.467C1421.96 235.499 1421.8 235.532 1421.67 235.564ZM1408.74 244.525C1408.74 244.525 1408.74 244.59 1408.7 244.59H1408.64C1408.67 244.59 1408.7 244.557 1408.77 244.557L1408.74 244.525ZM1471.35 305.43C1471.35 305.43 1471.35 305.43 1471.35 305.462C1471.35 305.462 1471.35 305.462 1471.32 305.462C1471.32 305.462 1471.32 305.462 1471.32 305.43H1471.35ZM1478.37 239.493C1478.37 239.493 1478.37 239.428 1478.4 239.363C1478.4 239.298 1478.72 239.233 1479.07 239.168C1478.84 239.233 1478.62 239.363 1478.37 239.493ZM1398.82 263.225C1398.82 263.225 1398.82 263.452 1398.82 263.582C1398.76 263.55 1398.7 263.485 1398.63 263.452C1398.73 263.355 1398.79 263.29 1398.89 263.225H1398.82ZM1432 317.669C1432 317.669 1432.29 317.604 1432.41 317.539C1432.41 317.702 1432.32 317.799 1432.32 317.961C1432.19 317.864 1432.09 317.767 1432 317.637V317.669ZM1486.87 296.469C1486.87 296.469 1487.03 296.664 1487.13 296.762C1487.07 296.762 1487.03 296.826 1486.97 296.859C1486.97 296.729 1486.91 296.599 1486.87 296.469Z" fill="white"/>
</g>
<g opacity="0.2" clip-path="url(#clip3_11140_45)">
<path d="M277.809 285.899C278.255 283.562 277.554 281.386 276.948 279.179C277.012 278.205 276.853 277.263 276.184 276.517C276.088 274.764 275.737 273.043 274.877 271.517C274.622 268.822 273.475 266.42 272.614 263.888C271.85 261.875 271.117 259.862 270.256 257.914C268.472 253.758 266.113 250.025 262.64 247.103C262.512 246.973 262.385 246.876 262.258 246.778C262.194 246.291 261.939 245.934 261.556 245.642C258.051 243.012 254.131 241.259 249.957 240.058C249.447 239.733 249.001 239.279 248.3 239.506C247.12 238.76 245.814 238.5 244.475 238.24C241.066 236.844 237.401 236.714 233.832 236.13C233.29 235.935 232.78 236.032 232.27 236.292C228.669 235.416 225.228 236.779 221.722 237.071C219.619 237.104 217.579 237.461 215.604 238.175C215.476 238.305 215.349 238.402 215.253 238.565C213.468 238.467 211.939 239.279 210.345 239.928C209.995 240.091 209.613 240.285 209.262 240.448C207.7 240.545 206.139 240.74 204.673 241.389C201.136 241.941 197.694 242.753 194.316 243.954C193.296 244.311 192.277 244.798 191.576 245.707C191.129 246.032 190.62 246.291 190.301 246.681C188.739 248.564 187.114 250.447 185.68 252.427C184.788 253.661 183.513 254.7 183.449 256.421C181.505 259.05 180.326 261.94 180.581 265.316C180.135 266.939 179.848 268.595 179.944 270.283C179.593 271.063 179.402 271.874 179.53 272.718C179.243 273.27 178.86 273.822 179.115 274.504C178.733 275.283 178.574 276.062 178.701 276.939C178 279.114 178.127 281.322 178.287 283.529C177.873 285.412 177.936 287.295 178.446 289.146C178.414 289.827 178.159 290.509 178.446 291.159C178.51 292.36 178.605 293.561 178.669 294.762C178.765 295.022 178.733 295.282 178.797 295.541C178.86 295.801 178.924 296.061 178.988 296.321C179.434 298.204 179.848 300.119 181.378 301.515C181.601 302.554 182.493 302.911 183.226 303.43C186.126 305.508 189.058 307.586 191.99 309.664C192.277 309.891 192.563 310.118 192.85 310.346C196.324 316.352 201.582 320.377 207.35 323.851C207.477 323.916 207.7 323.851 207.892 323.851C209.772 325.02 211.27 326.87 213.628 327.26C214.424 327.844 215.253 328.429 216.05 329.013C217.771 330.279 219.619 331.123 221.786 331.058C224.048 331.74 226.375 331.675 228.669 331.805C229.976 332 231.314 332.097 232.621 331.838C233.8 331.838 234.979 332.13 236.126 331.708C237.592 331.903 239.058 331.903 240.46 331.351C242.468 331.805 244.348 331.221 246.228 330.701C246.483 330.604 246.738 330.507 246.993 330.507C249.861 330.344 252.41 329.305 254.864 327.844C258.083 326.286 260.951 324.273 263.309 321.514C264.138 321.384 264.424 320.67 264.871 320.085C266.815 317.618 268.057 314.728 269.491 311.969C270.416 310.183 271.818 308.625 272.136 306.547C271.85 306.385 271.658 306.255 271.531 306.093C271.754 306.255 271.945 306.45 272.136 306.547C273.411 303.528 274.75 300.509 275.929 297.457C276.343 296.385 276.885 295.249 276.789 294.016C277.873 291.386 278.287 288.659 277.777 285.802L277.809 285.899ZM268.121 260.609V260.544C268.121 260.544 268.121 260.576 268.121 260.609C268.121 260.609 268.121 260.609 268.153 260.609C268.153 260.674 268.089 260.739 268.089 260.803C268.089 260.803 268.089 260.771 268.089 260.739C268.089 260.706 268.089 260.674 268.121 260.641C268.121 260.641 268.121 260.641 268.089 260.641L268.121 260.609ZM208.083 254.083C207.732 254.018 208.242 253.758 208.21 254.116C208.178 254.116 208.147 254.116 208.115 254.116V254.051L208.083 254.083ZM231.601 246.162C231.601 246.162 231.569 246.097 231.537 246.064C231.537 246.064 231.537 246.032 231.537 245.999C231.601 246.032 231.665 246.032 231.729 246.064C231.665 246.064 231.633 246.129 231.569 246.162H231.601ZM231.537 246.097C231.537 246.097 231.569 246.129 231.601 246.162C231.569 246.162 231.505 246.194 231.474 246.227C231.474 246.194 231.474 246.162 231.474 246.129C231.474 246.129 231.537 246.129 231.569 246.097H231.537ZM249.925 305.346C249.925 305.346 249.893 305.281 249.861 305.216C249.957 305.184 250.02 305.151 250.116 305.119C250.052 305.216 250.02 305.249 249.957 305.346H249.925ZM198.682 287.133C198.682 287.133 198.714 287.133 198.746 287.133C198.746 287.133 198.746 287.133 198.714 287.165C198.714 287.165 198.714 287.133 198.714 287.1L198.682 287.133ZM218.472 279.99C218.472 279.99 218.472 279.99 218.44 279.99H218.472ZM235.361 297.392C235.361 297.392 235.393 297.392 235.393 297.424C235.393 297.424 235.393 297.424 235.361 297.424V297.392ZM240.014 279.568C240.014 279.568 239.727 279.763 239.568 279.796C239.727 279.731 239.855 279.633 240.014 279.568ZM203.016 261.355C203.016 261.355 202.984 261.226 202.92 261.193C202.92 261.161 202.92 261.128 202.888 261.096H202.92C202.92 261.193 202.984 261.258 203.016 261.355ZM242.149 263.433C242.149 263.433 242.085 263.368 242.054 263.303H242.117C242.117 263.336 242.117 263.401 242.117 263.433H242.149ZM234.119 285.802C234.119 285.802 234.087 285.802 234.055 285.802C233.959 285.802 233.927 285.737 233.864 285.737C233.959 285.737 234.023 285.769 234.119 285.802ZM257.86 284.99C257.86 284.99 258.019 284.958 258.083 284.925C258.115 284.99 258.083 285.055 258.147 285.152C258.051 285.088 257.987 285.023 257.892 284.99H257.86ZM261.206 277.621C261.206 277.621 261.078 277.556 261.047 277.523C261.078 277.556 261.142 277.621 261.174 277.653L261.206 277.621ZM263.15 273.043C263.086 273.205 263.022 273.27 262.927 273.303C263.022 273.173 263.086 273.01 263.15 272.881C263.15 272.945 263.15 273.01 263.15 273.043ZM234.724 260.901C234.501 261.031 234.246 261.096 233.832 260.901C233.832 260.706 233.832 260.479 233.832 260.284C234.055 260.511 234.374 260.706 234.724 260.901ZM194.316 271.517C194.507 271.744 194.667 271.972 194.89 272.166C194.571 272.166 194.412 271.874 194.316 271.517ZM191.066 273.01C191.066 273.01 191.002 273.14 190.97 273.205C191.002 273.14 191.034 273.075 191.066 273.01ZM190.556 273.79C190.556 273.79 190.492 273.822 190.492 273.855C190.524 273.79 190.588 273.757 190.62 273.692C190.62 273.692 190.588 273.757 190.556 273.79ZM247.853 307.846C247.758 307.878 247.694 307.943 247.598 307.976C247.726 307.911 247.758 307.878 247.853 307.846ZM245.081 256.648C245.081 256.648 245.081 256.551 245.081 256.518C245.113 256.518 245.145 256.453 245.208 256.453C245.145 256.518 245.145 256.583 245.081 256.68V256.648ZM230.199 253.953C230.199 253.953 230.199 253.953 230.231 253.953C230.231 253.953 230.231 253.921 230.231 253.888L230.199 253.953ZM220.384 319.403C220.192 319.468 219.969 319.501 219.778 319.533C219.842 319.144 219.969 318.949 220.384 319.403ZM200.403 253.401C200.403 253.401 200.403 253.401 200.403 253.369V253.401ZM188.835 257.46C188.835 257.46 188.803 257.232 188.771 257.135C188.867 257.135 188.962 257.135 189.026 257.135C188.962 257.232 188.867 257.33 188.803 257.46H188.835ZM194.252 295.606C194.252 295.606 194.252 295.606 194.221 295.606H194.252ZM226.056 319.468C226.056 319.468 226.056 319.468 226.024 319.468C226.024 319.468 226.024 319.468 226.024 319.436L226.056 319.468ZM232.43 324.273C232.43 324.273 232.685 324.208 232.812 324.176C232.685 324.176 232.557 324.241 232.43 324.273ZM265.189 262.784C265.189 262.784 265.126 262.686 265.062 262.654C265.157 262.654 265.221 262.654 265.317 262.654C265.285 262.719 265.221 262.751 265.189 262.816V262.784ZM204.673 243.564C204.673 243.564 204.864 243.402 204.992 243.37C204.992 243.402 205.055 243.435 205.087 243.467C204.96 243.499 204.801 243.532 204.673 243.564ZM191.735 252.525C191.735 252.525 191.735 252.59 191.703 252.59H191.639C191.671 252.59 191.703 252.557 191.767 252.557L191.735 252.525ZM254.354 313.43C254.354 313.43 254.354 313.43 254.354 313.462C254.354 313.462 254.354 313.462 254.323 313.462C254.323 313.462 254.323 313.462 254.323 313.43H254.354ZM261.365 247.493C261.365 247.493 261.365 247.428 261.397 247.363C261.397 247.298 261.716 247.233 262.066 247.168C261.843 247.233 261.62 247.363 261.365 247.493ZM181.824 271.225C181.824 271.225 181.824 271.452 181.824 271.582C181.76 271.549 181.697 271.485 181.633 271.452C181.729 271.355 181.792 271.29 181.888 271.225H181.824ZM214.998 325.669C214.998 325.669 215.285 325.604 215.412 325.539C215.412 325.702 215.317 325.799 215.317 325.961C215.189 325.864 215.094 325.767 214.998 325.637V325.669ZM269.874 304.469C269.874 304.469 270.033 304.664 270.129 304.762C270.065 304.762 270.033 304.826 269.969 304.859C269.969 304.729 269.906 304.599 269.874 304.469Z" fill="white"/>
</g>
</g>
<defs>
<clipPath id="clip0_11140_45">
<rect width="1920" height="400" fill="white"/>
</clipPath>
<clipPath id="clip1_11140_45">
<rect width="165" height="155" fill="white" transform="translate(668 -41)"/>
</clipPath>
<clipPath id="clip2_11140_45">
<rect width="100" height="96" fill="white" transform="translate(1395 228)"/>
</clipPath>
<clipPath id="clip3_11140_45">
<rect width="100" height="96" fill="white" transform="translate(178 236)"/>
</clipPath>
</defs>
</svg>
