<svg width="47" height="47" viewBox="0 0 47 47" fill="none" xmlns="http://www.w3.org/2000/svg">
<path fill-rule="evenodd" clip-rule="evenodd" d="M23.5 41.125C25.8145 41.125 28.1064 40.6691 30.2448 39.7834C32.3832 38.8976 34.3261 37.5994 35.9628 35.9628C37.5994 34.3261 38.8976 32.3832 39.7834 30.2448C40.6691 28.1064 41.125 25.8145 41.125 23.5C41.125 21.1855 40.6691 18.8936 39.7834 16.7552C38.8976 14.6168 37.5994 12.6739 35.9628 11.0372C34.3261 9.40061 32.3832 8.10236 30.2448 7.21662C28.1064 6.33088 25.8145 5.875 23.5 5.875C18.8256 5.875 14.3426 7.73191 11.0372 11.0372C7.73191 14.3426 5.875 18.8256 5.875 23.5C5.875 28.1744 7.73191 32.6574 11.0372 35.9628C14.3426 39.2681 18.8256 41.125 23.5 41.125ZM23.0457 30.6283L32.8373 18.8783L29.8293 16.3717L21.4085 26.4747L17.0512 22.1155L14.2821 24.8845L20.1571 30.7595L21.6729 32.2753L23.0457 30.6283Z" fill="#DF6E00"/>
</svg>
