<svg width="21" height="15" viewBox="0 0 21 15" fill="none" xmlns="http://www.w3.org/2000/svg">
<path d="M8.75 10.9751L13.94 7.9751L8.75 4.9751V10.9751ZM20.31 3.1451C20.44 3.6151 20.53 4.2451 20.59 5.0451C20.66 5.8451 20.69 6.5351 20.69 7.1351L20.75 7.9751C20.75 10.1651 20.59 11.7751 20.31 12.8051C20.06 13.7051 19.48 14.2851 18.58 14.5351C18.11 14.6651 17.25 14.7551 15.93 14.8151C14.63 14.8851 13.44 14.9151 12.34 14.9151L10.75 14.9751C6.56 14.9751 3.95 14.8151 2.92 14.5351C2.02 14.2851 1.44 13.7051 1.19 12.8051C1.06 12.3351 0.97 11.7051 0.91 10.9051C0.84 10.1051 0.81 9.4151 0.81 8.8151L0.75 7.9751C0.75 5.7851 0.91 4.1751 1.19 3.1451C1.44 2.2451 2.02 1.6651 2.92 1.4151C3.39 1.2851 4.25 1.1951 5.57 1.1351C6.87 1.0651 8.06 1.0351 9.16 1.0351L10.75 0.975098C14.94 0.975098 17.55 1.1351 18.58 1.4151C19.48 1.6651 20.06 2.2451 20.31 3.1451Z" fill="black"/>
</svg>
